# xmcd
#
# Track frame offsets: 
#        150
#        19698
#        34726
#        51004
#        64861
#        90291
#        107296
#        128171
#        147314
#        158499
#        181204
#
# Disc length: 2676 seconds
#
# Revision: 0
# Processed by: cddbd v1.5.2PL0 Copyright (c) Steve Scherf et al.
# Submitted via: ExactAudioCopy v1.3
#
DISCID=7f0a720b
DTITLE=Emmylou Harris - Cimarron
DYEAR=1981
DGENRE=Country
TTITLE0=Rose of Cimarron
TTITLE1=Spanish Is A Loving Tongue
TTITLE2=If I Needed You
TTITLE3=Another Lonesome Morning
TTITLE4=The Last Cheater's Waltz
TTITLE5=Born To Run
TTITLE6=The Price You Pay
TTITLE7=Son Of A Rotten Gambler
TTITLE8=Tennessee Waltz
TTITLE9=Tennessee Rose
TTITLE10=Colors Of Your Heart
EXTD=
EXTT0=
EXTT1=
EXTT2=
EXTT3=
EXTT4=
EXTT5=
EXTT6=
EXTT7=
EXTT8=
EXTT9=
EXTT10=
PLAYORDER=
